<?xml version="1.0" encoding="UTF-8"?>
<svg width="24px" height="380px" viewBox="0 0 24 380" version="1.1" xmlns="http://www.w3.org/2000/svg" xmlns:xlink="http://www.w3.org/1999/xlink">
    <title>DRAFT</title>
    <g id="DRAFT" stroke="none" stroke-width="1" fill="none" fill-rule="evenodd">
        <path d="M-178,178 L202,178 L202,202 L-168,202 C-173.522847,202 -178,197.522847 -178,192 L-178,178 L-178,178 Z" id="Rectangle-Copy" fill="#409D69" transform="translate(12.000000, 190.000000) rotate(-90.000000) translate(-12.000000, -190.000000) "></path>
        <path d="M-48.2643,91.4432 L-46.0317,83.0618 C-45.8121,82.2383 -45.6474,81.2318 -45.6474,81.2318 L-45.6108,81.2318 C-45.6108,81.2318 -45.4461,82.2383 -45.2265,83.0618 L-42.9939,91.4432 L-40.8894,91.4432 L-37.5039,78.5234 L-39.3705,78.5234 L-41.7495,88.0028 C-41.9325,88.6982 -41.9874,89.3753 -41.9874,89.3753 L-42.024,89.3753 C-42.024,89.3753 -42.1155,88.7165 -42.2985,88.0028 L-44.8239,78.5234 L-46.4343,78.5234 L-48.9597,88.0028 C-49.1427,88.7165 -49.2342,89.3753 -49.2342,89.3753 L-49.2708,89.3753 C-49.2708,89.3753 -49.344,88.6982 -49.5087,88.0028 L-51.7962,78.5234 L-53.6628,78.5234 L-50.3688,91.4432 L-48.2643,91.4432 Z M-31.6113,91.6628 C-29.397,91.6628 -28.0245,90.3452 -28.0245,90.3452 L-28.7565,89.0459 C-28.7565,89.0459 -29.9094,90.1256 -31.5015,90.1256 C-33.1485,90.1256 -34.5942,89.1008 -34.6857,87.0695 L-27.933,87.0695 C-27.933,87.0695 -27.8781,86.5388 -27.8781,86.3009 C-27.8781,83.9036 -29.2689,81.9638 -31.8858,81.9638 C-34.521,81.9638 -36.5157,83.867 -36.5157,86.8133 C-36.5157,89.5583 -34.521,91.6628 -31.6113,91.6628 Z M-29.6898,85.7336 L-34.6308,85.7336 C-34.3746,84.2147 -33.2766,83.3729 -31.9224,83.3729 C-30.7329,83.3729 -29.7447,84.1415 -29.6898,85.7336 Z M-23.9436,91.4432 L-23.9436,87.6551 C-23.9436,87.0878 -23.8887,86.5205 -23.724,85.9898 C-23.3031,84.6173 -22.26,83.8121 -21.1254,83.8121 C-20.8509,83.8121 -20.613,83.867 -20.613,83.867 L-20.613,82.1102 C-20.613,82.1102 -20.8326,82.0736 -21.0705,82.0736 C-22.4979,82.0736 -23.5776,83.135 -23.9985,84.4892 L-24.0351,84.4892 C-24.0351,84.4892 -23.9985,84.1781 -23.9985,83.7938 L-23.9985,82.1834 L-25.7187,82.1834 L-25.7187,91.4432 L-23.9436,91.4432 Z M-17.0811,91.4432 L-17.0811,87.0878 L-15.7452,87.0878 L-12.9636,91.4432 L-10.8957,91.4432 L-14.3178,86.3009 L-14.3178,86.2643 L-11.2434,82.1834 L-13.2564,82.1834 L-15.7818,85.5872 L-17.0811,85.5872 L-17.0811,78.5234 L-18.8562,78.5234 L-18.8562,91.4432 L-17.0811,91.4432 Z M-5.8449,91.6628 C-3.5574,91.6628 -2.8071,89.9426 -2.8071,89.9426 L-2.7705,89.9426 C-2.7705,89.9426 -2.7888,90.1988 -2.7888,90.5648 L-2.7888,91.4432 L-1.1052,91.4432 L-1.1052,78.5234 L-2.8803,78.5234 L-2.8803,82.8056 C-2.8803,83.1533 -2.8437,83.4278 -2.8437,83.4278 L-2.8803,83.4278 C-2.8803,83.4278 -3.594,81.9638 -5.7351,81.9638 C-8.1873,81.9638 -9.9258,83.867 -9.9258,86.8133 C-9.9258,89.6864 -8.352,91.6628 -5.8449,91.6628 Z M-5.4972,90.1256 C-7.0344,90.1256 -8.1141,88.8263 -8.1141,86.8133 C-8.1141,84.7088 -6.9063,83.501 -5.4423,83.501 C-3.6855,83.501 -2.8254,85.148 -2.8254,86.795 C-2.8254,89.1557 -4.1247,90.1256 -5.4972,90.1256 Z M5.9952,91.6628 C8.7585,91.6628 10.9911,89.6132 10.9911,86.795 C10.9911,83.9951 8.7585,81.9638 5.9952,81.9638 C3.2319,81.9638 0.9993,83.9951 0.9993,86.795 C0.9993,89.6132 3.2319,91.6628 5.9952,91.6628 Z M5.9952,90.1256 C4.2567,90.1256 2.811,88.7348 2.811,86.795 C2.811,84.8735 4.2567,83.501 5.9952,83.501 C7.752,83.501 9.1794,84.8735 9.1794,86.795 C9.1794,88.7348 7.752,90.1256 5.9952,90.1256 Z M17.3961,91.6628 C19.8117,91.6628 21.0927,90.1805 21.0927,90.1805 L20.379,88.8812 C20.379,88.8812 19.2444,90.1256 17.5242,90.1256 C15.6027,90.1256 14.2485,88.6799 14.2485,86.795 C14.2485,84.8918 15.6027,83.501 17.4693,83.501 C18.9000273,83.501 19.8467876,84.3781901 20.0071017,84.5376792 L20.0313,84.5624 L20.0313,84.5624 L20.8731,83.318 C20.8731,83.318 19.7202,81.9638 17.3961,81.9638 C14.4864,81.9638 12.4368,84.0683 12.4368,86.8133 C12.4368,89.5949 14.4864,91.6628 17.3961,91.6628 Z M26.1435,91.6628 C27.9552,91.6628 29.163,90.455 29.5473,89.54 L29.5839,89.54 C29.5839,89.54 29.5473,89.8328 29.5473,90.2171 L29.5473,91.4432 L31.2675,91.4432 L31.2675,82.1834 L29.4924,82.1834 L29.4924,86.5205 C29.4924,88.3505 28.3761,90.0158 26.4912,90.0158 C25.0089,90.0158 24.7527,88.991 24.7527,87.71 L24.7527,82.1834 L22.9776,82.1834 L22.9776,88.1126 C22.9776,90.5648 24.0573,91.6628 26.1435,91.6628 Z M35.8242,91.4432 L35.8242,87.2159 C35.8242,86.795 35.8425,86.3741 35.934,86.0081 C36.2817,84.6905 37.2333,83.5742 38.5875,83.5742 C40.0149,83.5742 40.1979,84.6905 40.1979,85.8983 L40.1979,91.4432 L41.973,91.4432 L41.973,87.2159 C41.973,86.7401 42.0096,86.3192 42.1011,85.9349 C42.4305,84.6722 43.4004,83.5742 44.6997,83.5742 C46.0905,83.5742 46.3467,84.599 46.3467,85.8983 L46.3467,91.4432 L48.1218,91.4432 L48.1218,85.514 C48.1218,83.1533 47.1519,81.9638 45.0657,81.9638 C43.5651,81.9638 42.2841,82.952 41.7717,84.0683 L41.7351,84.0683 C41.424,82.6775 40.509,81.9638 38.9535,81.9638 C37.5078,81.9638 36.2085,83.0069 35.7693,84.0866 L35.7327,84.0866 C35.7327,84.0866 35.7693,83.7755 35.7693,83.4095 L35.7693,82.1834 L34.0491,82.1834 L34.0491,91.4432 L35.8242,91.4432 Z M55.0392,91.6628 C57.2535,91.6628 58.626,90.3452 58.626,90.3452 L57.894,89.0459 C57.894,89.0459 56.7411,90.1256 55.149,90.1256 C53.502,90.1256 52.0563,89.1008 51.9648,87.0695 L58.7175,87.0695 C58.7175,87.0695 58.7724,86.5388 58.7724,86.3009 C58.7724,83.9036 57.3816,81.9638 54.7647,81.9638 C52.1295,81.9638 50.1348,83.867 50.1348,86.8133 C50.1348,89.5583 52.1295,91.6628 55.0392,91.6628 Z M56.9607,85.7336 L52.0197,85.7336 C52.2759,84.2147 53.3739,83.3729 54.7281,83.3729 C55.9176,83.3729 56.9058,84.1415 56.9607,85.7336 Z M62.7069,91.4432 L62.7069,87.1061 C62.7069,86.6486 62.7435,86.2277 62.8533,85.8617 C63.2376,84.5258 64.3722,83.5925 65.7813,83.5925 C67.2636,83.5925 67.5381,84.6173 67.5381,85.9166 L67.5381,91.4432 L69.3132,91.4432 L69.3132,85.514 C69.3132,83.1533 68.3067,81.9638 66.129,81.9638 C64.116,81.9638 63.018,83.2814 62.652,84.0866 L62.6154,84.0866 C62.6154,84.0866 62.652,83.7755 62.652,83.4095 L62.652,82.1834 L60.9318,82.1834 L60.9318,91.4432 L62.7069,91.4432 Z M75.9012,91.5164 C76.2672,91.5164 76.5234,91.4798 76.5234,91.4798 L76.5234,89.906 C76.5234,89.906 76.3587,89.9426 76.1025,89.9426 C75.4254,89.9426 74.1261,89.7047 74.1261,87.8564 L74.1261,83.7389 L76.3587,83.7389 L76.3587,82.3115 L74.1261,82.3115 L74.1261,79.6397 L72.4059,79.6397 L72.4059,82.3115 L71.1432,82.3115 L71.1432,83.7389 L72.351,83.7389 L72.351,88.0577 C72.351,91.1504 74.7117,91.5164 75.9012,91.5164 Z" id="Werkdocument" fill="#FFFFFF" fill-rule="nonzero" transform="translate(11.430300, 85.093100) rotate(-90.000000) translate(-11.430300, -85.093100) "></path>
    </g>
</svg>